# xmcd
#
# Track frame offsets:
#	150
#	12905
#	26405
#	39590
#	54285
#	65580
#	77175
#	94445
#	104850
#	116855
#	127650
#	138940
#	153070
#	169270
#	183510
#	196555
#	208185
#	220580
#	231500
#	243340
#	257070
#	269330
#	281105
#	292430
#	303690
#
# Disc length: 4214 seconds
#
# Revision: 1
# Processed by: cddbd v1.5.1PL2 Copyright (c) Steve Scherf et al.
# Submitted via: audiograbber 1.83.01
#
DISCID=7b107419
DTITLE=Various Artist - 100 No. 1 Country Hits
DYEAR=1900
DGENRE=Country
TTITLE0=Charlie Rich - The Most Beautiful Girl
TTITLE1=Lynn Anderson - Rose Garden
TTITLE2=Faron Young - It`s Four In The Morning
TTITLE3=Jeannie C Biley - Harper Valley PTA
TTITLE4=Don Gibson - Oh Lonesome Me
TTITLE5=Sammi Smith - Help Me Make It Through The Night
TTITLE6=Ray Price - For The Good Times
TTITLE7=Connie Smith - Once A Day
TTITLE8=Del Reeves - Girl On The Bilboard
TTITLE9=Ferlin Husky - Wings Of A Dove
TTITLE10=Stonewall Jackson - Waterloo
TTITLE11=Barbara Fairchild - The Teddy Bear Song
TTITLE12=Johnny Lee - Lockin` For Love
TTITLE13=Conway Twitty - You`ve Never Been This Far Before
TTITLE14=Claude King - Wolverton Mountain
TTITLE15=Freddy Fender - Before The Next teardrop Falls
TTITLE16=Jeanne Pruett - Satin Sheets
TTITLE17=Billy Walker - Charlie`s Shoes
TTITLE18=Henson Cargill - Skip A Rope
TTITLE19=David Houston - Almost Persuaded
TTITLE20=Merlie Haggard - Okie From Muskogee
TTITLE21=Porter Wagoner - Misery Loves Company
TTITLE22=Roger Miller - Kong Of The Road
TTITLE23=Conway Twitty - It`s Only Make Believe
TTITLE24=Jack Greene - There Goes My Everything
EXTD=
EXTT0=
EXTT1=
EXTT2=
EXTT3=
EXTT4=
EXTT5=
EXTT6=
EXTT7=
EXTT8=
EXTT9=
EXTT10=
EXTT11=
EXTT12=
EXTT13=
EXTT14=
EXTT15=
EXTT16=
EXTT17=
EXTT18=
EXTT19=
EXTT20=
EXTT21=
EXTT22=
EXTT23=
EXTT24=
PLAYORDER=
